<svg width="48" height="47" viewBox="0 0 48 47" fill="none" xmlns="http://www.w3.org/2000/svg">
<g clip-path="url(#clip0_235_916)">
<path d="M24.5938 9C20.8174 9 17.1258 10.1198 13.9858 12.2179C10.8459 14.3159 8.39859 17.298 6.95343 20.7869C5.50827 24.2758 5.13015 28.1149 5.86689 31.8188C6.60363 35.5226 8.42213 38.9248 11.0924 41.5951C13.7627 44.2654 17.1649 46.0839 20.8688 46.8206C24.5726 47.5574 28.4117 47.1792 31.9006 45.7341C35.3895 44.2889 38.3716 41.8416 40.4696 38.7017C42.5677 35.5617 43.6875 31.8701 43.6875 28.0938C43.6822 23.0314 41.6688 18.1779 38.0892 14.5983C34.5096 11.0187 29.6561 9.00535 24.5938 9ZM31.5079 30.6016L25.6329 36.4766C25.4965 36.6132 25.3345 36.7215 25.1562 36.7954C24.9779 36.8694 24.7868 36.9074 24.5938 36.9074C24.4007 36.9074 24.2096 36.8694 24.0313 36.7954C23.853 36.7215 23.691 36.6132 23.5546 36.4766L17.6796 30.6016C17.404 30.326 17.2492 29.9523 17.2492 29.5625C17.2492 29.1727 17.404 28.799 17.6796 28.5234C17.9552 28.2478 18.329 28.0929 18.7188 28.0929C19.1085 28.0929 19.4823 28.2478 19.7579 28.5234L23.125 31.8923V20.75C23.125 20.3605 23.2798 19.9869 23.5552 19.7114C23.8306 19.436 24.2042 19.2812 24.5938 19.2812C24.9833 19.2812 25.3569 19.436 25.6323 19.7114C25.9078 19.9869 26.0625 20.3605 26.0625 20.75V31.8923L29.4296 28.5234C29.7052 28.2478 30.079 28.0929 30.4688 28.0929C30.8585 28.0929 31.2323 28.2478 31.5079 28.5234C31.7835 28.799 31.9383 29.1727 31.9383 29.5625C31.9383 29.9523 31.7835 30.326 31.5079 30.6016Z" fill="#01DBE7"/>
</g>
<defs>
<clipPath id="clip0_235_916">
<rect width="47" height="47" fill="white" transform="translate(0.5)"/>
</clipPath>
</defs>
</svg>
