<svg width="21" height="20" viewBox="0 0 21 20" fill="none" xmlns="http://www.w3.org/2000/svg">
<path d="M18.478 5.31702L13.478 1.297C12.6315 0.623487 11.5818 0.256836 10.5 0.256836C9.41829 0.256836 8.3685 0.623487 7.52202 1.297L2.52202 5.31702C1.96729 5.76066 1.51983 6.32378 1.21302 6.96442C0.906203 7.60506 0.747938 8.30671 0.75002 9.01703V15.009C0.752139 16.2677 1.25343 17.4741 2.14391 18.3636C3.03439 19.2532 4.24135 19.7532 5.50002 19.754H8.25002V15.009C8.25002 14.4123 8.48707 13.8399 8.90903 13.418C9.33099 12.996 9.90328 12.759 10.5 12.759C11.0968 12.759 11.6691 12.996 12.091 13.418C12.513 13.8399 12.75 14.4123 12.75 15.009V19.754H15.5C16.7587 19.7532 17.9656 19.2532 18.8561 18.3636C19.7466 17.4741 20.2479 16.2677 20.25 15.009V9.01703C20.2521 8.30671 20.0938 7.60506 19.787 6.96442C19.4802 6.32378 19.0328 5.76066 18.478 5.31702ZM18.75 15.005C18.7484 15.866 18.4053 16.6912 17.7961 17.2996C17.1868 17.9079 16.361 18.2497 15.5 18.25H14.25V15.005C14.25 14.0104 13.8549 13.0567 13.1517 12.3534C12.4484 11.6501 11.4946 11.255 10.5 11.255C9.50546 11.255 8.55162 11.6501 7.84836 12.3534C7.1451 13.0567 6.75002 14.0104 6.75002 15.005V18.25H5.50002C4.63901 18.2497 3.81328 17.9079 3.20398 17.2996C2.59469 16.6912 2.25161 15.866 2.25002 15.005V9.013C2.24894 8.52785 2.35725 8.04871 2.56691 7.61121C2.77658 7.1737 3.08219 6.78911 3.46102 6.48602L8.46102 2.466C9.04052 2.00513 9.75909 1.75421 10.4995 1.75421C11.2399 1.75421 11.9585 2.00513 12.538 2.466L17.538 6.48602C17.9168 6.78911 18.2225 7.1737 18.4321 7.61121C18.6418 8.04871 18.7501 8.52785 18.749 9.013V15.005H18.75Z" fill="white"/>
</svg>
